<svg class="kz-map" id="kz-map" xmlns="http://www.w3.org/2000/svg" width="657.818" height="369.484" version="1"><script id="tinyhippos-injected"/><g id="layer1" transform="translate(-36.805 -304.763)"><path class="kz-map__border" d="M292.91 588.303l-13.547-18.447-.577-4.611-40.064-32.57-45.251 8.935-11.818 86.757h-9.511l-3.17-6.341-4.036-7.782.288-4.324-11.817-10.664-14.7-.288-4.9.576-6.053 3.459-3.17 2.594-2.018.865-3.747 2.882-2.305 2.017-29.4-75.227 4.035-45.829-4.611-4.035-6.63-5.764-1.152-2.306 1.153-2.018 2.594.288 2.305 2.595 2.018.288 2.306-1.153-1.153-2.306-1.441-2.594-.865-3.747-1.153-8.07-2.594-2.883v-4.323l-2.306-2.594-2.017-1.441h-4.035l-3.171-3.747-1.441 2.017-1.153 1.441-2.882-2.017v-6.053l2.017-1.441v-4.612l-8.07-6.34 7.494-10.377 4.612-1.153 1.729-3.459-.288-2.305-2.883-2.018 4.612-12.106h4.9l2.594-2.017.288-4.612 2.018-2.594 3.459-1.441 2.305 1.73 3.46 7.493.576 5.477 2.882 3.17 5.476-1.153h3.17l.289-4.035-2.018-3.17.289-9.8 4.035 1.153 4.035-2.306 5.188-.865v-6.053h3.17l4.036 1.441 3.17-2.305h4.612l2.306-3.17 3.458-2.595 1.73-1.153 1.441-2.882.865 2.017h5.188l2.594 6.341h5.188l3.459-3.17 5.476-.576 2.306 6.917 9.8 1.441 3.17.865 1.73 2.017.288 4.612 3.747 2.018 2.882 3.17.288 3.747 3.459 1.73-2.018 4.9.865 2.593 3.17.289.865-2.594v-3.46l-2.306-2.593 2.594-3.459 2.595 2.018 3.747 3.458 7.205 8.936 7.494-3.171 1.441-3.459 4.035-.576 2.306-2.882 9.224.864 2.594 4.612h4.323l2.882-4.035 6.053.576 4.9 1.441.288 5.765 5.188 5.476 5.477-.288 3.17 2.594 3.17 1.73 2.595-3.171.865-3.747 3.17-.577 1.153 3.46 6.053.576 7.782-.865 4.323-2.306 2.306-8.647.288-3.17-3.747-3.17h-4.611l-.865-3.171h-6.63l-.864-2.306 1.153-2.018-4.612-3.17v-1.73l4.324-2.882 6.053-1.73 3.747-3.458-.865-4.612-3.459-4.323 3.459-3.459 3.17-3.17h2.883l4.323 1.44h4.9l2.306-1.729.288-2.305-3.459-1.73-5.188-2.017-5.476-.577v-2.882l3.17-.577 4.612-2.305-1.73-1.442h-4.323l-3.458-1.44 2.594-2.595 1.152-2.306-2.594-1.729 2.306-2.882 3.747-.288 2.306 1.729 4.323.288h7.783l9.511-.864 3.459-1.73 7.782-1.153 4.035-2.306 12.97 1.153 1.73-.864v-4.036l4.612-2.305 5.476-1.73 4.035.865 10.665-3.17 12.105-4.9h4.612l.576-3.171 4.035-3.747 4.612-2.882 2.594-1.153 6.341 1.73 9.512 4.323 3.17-3.747 4.612-.865 2.882 5.476.577 6.341 3.458 3.747-.864 4.324v2.882l-2.594 2.018 3.747 4.611 3.17-3.17 1.73 2.594 3.458-3.459 4.612-2.882 4.035 4.323v5.188l2.594-.576.865-2.306.576-2.882h3.747l2.594 3.459 4.324.576 2.594-2.882 3.17 2.882-.864 2.594h-3.17l-2.595 3.459-1.441 4.035 3.17 1.441 3.17-2.306 3.748-2.306 3.747 2.306 2.594.577 1.153-4.9 4.9-2.882 4.611-2.018 3.17-5.765 4.036-.864 4.9-3.747.288-2.306h3.459l3.747-2.594 2.306-1.153.288 3.747-1.73 3.747h-4.899l2.882 4.9 13.259 7.205 5.764 4.324 6.918 7.782 35.74 47.846 3.17-3.17 2.594-2.883-.864-3.459.288-2.305 3.17-2.018 5.477.865 1.153 2.306.864 2.882 4.036.864 1.44 3.46h5.189l3.459-2.883 5.476.288 4.323-4.9h4.036l2.594-3.747h4.9l6.052 2.306 2.306 1.73 6.63 10.376 9.8 1.44 3.458 5.477 4.323 3.747 4.9.288h9.8l3.17-4.323 2.595-2.594 2.017-.288.577 3.747 4.611 2.306 1.153 2.594 5.188.288-.288 2.594-4.035.576-2.594 1.73-1.73 2.017 2.883 4.324.288 5.188-3.459 2.594-3.17 2.306-4.612 2.306-2.882 1.44-.577 9.512 2.306 8.07 4.035 8.071-1.44 4.323v2.594l-5.477 1.153-2.018 2.883-2.017 2.882h-2.883l-2.305-3.459-5.765 1.73-4.612 1.729-6.917-.577-5.188-2.305h-2.883l-3.458 40.928-.577 2.594h6.918l-.577 8.07-5.764-2.882-3.459 2.594h-3.17l-2.883-3.17-6.053 2.017-19.6 10.377-2.017 4.035.288 2.017.577.289 9.511-.865-2.305 7.494 2.305 8.359 10.088 14.7-1.152 3.746 2.882 1.153v3.17h-4.324l-2.017 2.595 1.153 1.44 1.73 1.154-2.883 2.017s-2.594 0-2.594 1.441v4.324l2.594 2.306.576 3.747-2.306.864-1.729-.288-.865-.865-1.44-.288-2.595-1.73-8.07.577-2.306-2.306-2.018-2.882-9.223.577-2.594-1.73-4.9 1.73-13.547.576-3.17.865-4.324-1.73-4.611.865-4.035 2.594H533.58l-1.441 3.17h-10.665l-5.188-2.305-4.9-2.882-3.746-2.018h-3.171l-4.323 2.882-4.036 2.018-1.729 5.188-.865 5.764 1.73 4.324-2.594.865-3.46-2.594-4.61-.289-4.036-2.882h-4.323l-6.053-1.73-5.765-.288-4.611 1.153-6.053.577-.288 4.323-3.17 3.17v4.9l-.29 2.883-3.746.865-1.441 4.323-4.035-2.306-2.883 3.17-4.323 5.765-7.206 2.018-3.747 4.035-3.17 1.73-2.883 3.746-2.594 3.46-4.323 4.61v7.207h-4.9l-5.476-5.189 2.017-4.035-5.764-4.9-5.188.865-14.988.576-4.036-20.176-8.358-.576 1.73-24.211-3.171 2.017-2.883 1.73-2.882-8.359-1.73-3.17-4.9-2.306-5.764-7.782-7.494 4.9-10.952-1.442h-6.053l-4.9-2.305-21.04 3.17z" id="pathBorderKazakistan" fill="snow" fill-rule="evenodd" stroke="#000" stroke-linecap="round" stroke-linejoin="round" stroke-dasharray="8,2,1,2"/><g class="kz-map__regions" id="g5024" transform="translate(-4.009 -2.004)"><path class="kz-map__region" id="reg-kar" d="M399.69 421.507l4.315-2.505 1.809-2.922h4.036l4.731 6.402 7.098 1.391 1.67 5.01 2.922.14v-1.392l3.48.696 2.504 2.365 4.732-.139 3.061-2.644v-4.036l5.567-5.288 5.706-4.314 3.061.974.975 5.984 4.453 1.113 2.783-4.175 4.87-3.34 1.114-4.314 5.15-.139 1.809-3.618 3.2-1.67 3.758-.696 1.53-1.392 4.315 4.315-1.67 1.67v3.34l1.53 2.226 8.49.696 2.226 2.227 2.784.139 3.618 2.226s.556 3.201.556 4.036c0 .835-1.67 4.036-1.67 4.036l3.34.974 3.48-4.87 3.896-.975 3.34-1.948 3.758.696 6.68-3.48 4.174-8.767h3.619l1.948 1.253h3.2l1.95.417 1.808 1.81-.695 3.2 2.365 3.897-7.515 7.793-.417 4.036.835 2.783v1.67l4.036 5.15-2.505 3.2-.279 3.618 2.227 4.036 2.366 3.062-.835 3.479-4.732 2.505.279 2.783 7.375 7.793-2.783 3.619-.557 12.107-2.365.974-.14 2.923 3.062 3.479 1.67-.279 1.948-1.809 1.949-.139 2.226-2.087 1.67.556-1.53 4.036.834.974.696 8.628-3.34 2.088h-18.787l-8.767 1.113-11.273 3.34-12.942 14.752-3.34 2.226-2.644-.278-41.889 2.644-10.716.974-15.586.279-4.87 1.53h-30.2l-4.87-4.731-6.402.417-1.392 1.531-15.864-.557-9.046-7.236-26.442-12.247-5.149-4.87-2.783-.14-.835-1.252 4.87-4.175 2.923-.974 9.046-5.845 6.54-5.15.28-3.06-1.67-1.95-1.532-1.67.279-3.478h2.644l1.53-5.289 2.506-1.252 1.113-3.2 1.948-.975.418-3.062.974-2.505 2.227-.139 2.504 2.227 8.907 1.252 3.48-3.2 2.922.278 2.365-4.453 4.315-3.619.695-5.01 11.412-9.88 4.036-8.35 7.932-5.428-.417-4.175z" fill="#ff9480" fill-opacity=".906" fill-rule="evenodd"/><path class="kz-map__region" id="reg-akm" d="M370.934 378.649l8.282.298 5.746 1.045 2.463-.821 2.238-4.253 4.925 3.581 14.402-11.342-.15-4.776-4.029-8.133 3.88-4.179 5.298-1.492 3.134 1.194 3.358-2.537 4.179.895.672 3.283 3.059 1.418 3.582 4.477 2.91-3.432 4.925.149 1.79.895.672.747 5.448-.373 3.73 4.029 2.762 4.179 12.088-2.388 2.313 4.552 3.731.597 2.985.895 6.865.597 2.91 7.387v8.507l-1.94 3.283.224 1.717 2.612 3.955-1.642 1.343-3.656 6.119 2.835.522.15 1.567 1.044 1.343-2.91 1.94-2.91.299-3.209 1.865-1.79 3.358-5.075.522-1.343 4.478-4.626 2.611-3.135 4.403-4.327-.97-.523-5.895-3.283-1.269-11.715 9.552v4.178l-3.358 2.612-4.403-.149-2.462-2.09-3.433-.447-.224 1.045-2.238-.15-1.493-5-7.089-1.119-5-6.566-4.476-.15-1.269 2.463-2.015 2.015-2.76 1.194-10.149.522-5.82-3.806-1.717-3.507-7.163-.149-4.179-5.671-7.537.15-.074-11.79-3.06-3.508 7.388-8.208 1.94-4.552 1.642-3.06z" fill="#c5bf7c" fill-opacity=".906" fill-rule="evenodd"/><path class="kz-map__region" id="reg-alm" d="M638.999 514.525h-4.213l-1.297-5.023-7.94-5.834-4.375-11.019-2.268-.324-3.08 1.62H601.73l-4.051-4.536-3.565-.324-2.106 2.592-2.755.486-1.945 2.107h-3.079l-5.185-4.7-2.268 1.135-2.593.648-7.13-3.24-4.213.647-3.241 1.459-3.565 2.106h-1.782l-1.135 3.403 1.135 2.269v8.426l-34.515 2.755-16.69 9.722-3.89 13.936 1.135 8.426 2.268 6.32 2.43 4.213 5.186 4.861 1.459 4.861 11.829 6.32 3.24 11.83 6.644 12.8v6.644l2.593-.81 1.296-3.403 13.45.81 4.213-3.24 4.375-.649 4.861 2.269 4.861-1.458 11.668-.325 4.86-1.62 2.593 1.458 8.589-.162 4.699 4.862 6.968-.81 5.347 2.754 1.297 1.134 2.754-.972-.648-3.24-1.62-2.593-.973-5.024 5.186-2.592-1.945-2.917 1.783-2.755 4.537-.162-1.458-2.268-1.945-2.269.81-3.565-10.208-14.098-1.783-9.722 2.43-5.996-9.074.973-1.458-.81v-1.46l1.944-4.698 20.256-10.857 5.833-1.945 3.403 3.565 3.403-.486 2.43-2.268 5.834 2.592.162-6.806-6.806-.324 1.135-4.699z" fill="#f3b63f" fill-opacity=".906" fill-rule="evenodd"/><path class="kz-map__region" id="reg-atyr" d="M92.808 489.126l-8.679-8.087-.789-1.578 1.184-1.775 2.367.394 3.353 2.959 2.17-.79 1.38-.788-2.564-5.129-1.972-11.637-2.565-2.367v-4.734l-3.945-4.142h-4.34l-3.155-3.748-3.156 3.156-2.564-2.17v-5.325l2.564-1.973 20.908.592 14.005 8.482 3.353-1.776 3.156.987 9.862-5.523 10.257.591 6.115-5.128 6.706.394 5.72 6.115 4.537 3.945 6.904-5.523.591-2.959 3.156-3.747 2.17.986 4.931-.197 5.129-2.565 1.972 2.17 3.353 2.17-.197.986-1.973 1.38.141 6.106 5.58 2.79 2.65-1.814 5.16 2.51-1.813 4.185-.14 11.855 2.51 4.603-2.091 3.347-1.953 4.603-1.674 4.463-.418 1.813 2.37 3.348-.278 5.579 3.766 5.02 11.716 5.44 1.394 11.856-1.813.837-5.997-3.627-5.719-5.16-5.16-4.324-1.116 2.65-3.208 1.534-2.51-1.534-2.372-2.232-5.997.419-.837 1.952h-4.603l-2.51-1.952-3.208 2.231-7.392.558-64.422-20.702z" fill="#9ef19e" fill-opacity=".906" fill-rule="evenodd"/><path class="kz-map__region" id="reg-kyz" d="M246.008 534.701l3.716-4.459-1.04-4.905.148-1.635 5.945-.297 2.23-3.418 15.458-14.27h2.972l1.338-5.647 9.066.297 5.946-10.701 2.526-4.31 8.324.445 10.701 11.148.298 2.675 4.607 4.013 1.338 1.932 3.27.595 3.567 3.716 2.527 1.932 16.646 7.729 7.878 3.567 8.918 6.985 16.498.595 1.932-1.486 6.54.148 4.162 4.013-1.338 11.296-1.19 3.122 5.203 6.985.297 16.201 8.026 7.432-1.337 4.162.148 5.35-4.756 5.946 2.824 4.756-5.35 3.864-4.162 3.27-5.054 1.635-6.39 4.46-9.662 8.025.743-4.013 1.19-13.971h-.893l-5.35 3.864-2.676-8.026-2.526-3.716-4.014-1.783-6.54-8.026-7.58 5.053-6.54-.892-6.54-.743h-3.715l-3.418-1.338-1.635-1.189-6.689 1.338-14.269 2.23-7.282-10.553-5.797-6.689-.743-5.945-35.672-28.835-2.824-1.932z" fill="#f3b63f" fill-opacity=".906" fill-rule="evenodd"/><path class="kz-map__region" id="reg-kost" d="M303.788 403.725l-.608-2.279-3.798-2.886-4.102-.152-1.216-3.19-5.773.303-1.215-2.279.911-2.127-4.406-3.038.608-1.672 3.798-2.43 2.127-.608 3.798-1.367 3.95-3.343-.911-4.862-3.19-4.557 4.557-4.71 2.431-.912 1.671-.76 4.558 1.672h3.495l1.823-.152 2.734-1.671-.303-3.039-6.99-2.735-7.292-1.063v-2.583l2.887-.608 5.014-2.43-1.975-2.127-5.014.152-2.583-1.216 3.646-3.646v-1.671l-2.279-1.064.152-.76 2.431-1.67 3.343-.608 1.519 1.67 13.218.608 7.748-.76 4.558-1.67 7.9-1.672 3.95-1.823 12.762.912 2.28-1.52.303-3.646 4.71-2.127 3.798-1.215 4.558.304 1.52 5.317.91 1.368-2.278 1.975-.152 1.519 3.494 1.063v1.824l-4.71 3.494 4.406 4.406-1.063 2.43-1.671 1.064.455 2.127 1.672 1.52-1.672 1.823-.151 1.367 1.67 2.279-1.519.76-1.519.455-1.367 1.823-.304 1.672-.152 13.977-4.102 8.204-6.837 7.597 2.735 4.557.304 10.635 7.9.456 3.95 5.773h7.14l1.672 3.343 6.23 3.798 10.026-.608.304.912v3.19l-5.773 3.799-2.279 1.67-3.95 7.597-1.064 1.823-10.483 8.66-.76 4.862-3.646 3.494-2.582 4.558-3.19-.304-3.191 3.039-8.964-1.064-1.975-2.279h-2.431l-1.671 2.735v2.887l-2.583 1.823-.912 2.735-2.43 1.063-1.52 5.47h-2.43l-4.558-6.837-5.774-2.431-5.773-4.254 1.367-3.646-2.582-1.52-2.127 2.583-6.99-6.837 2.28-3.95-.608-3.494-1.671-1.52 2.43-2.278 2.432-3.95 5.773-3.343-.76-6.533-1.52-1.367.305-2.735-.912-2.279-.607-1.975-4.558-4.862.152-2.886 2.127-1.671-2.28-2.431-.303-2.431-2.28-1.52-1.974 2.583-1.064-1.823.608-3.798-5.773-.456z" fill="#c5bf7c" fill-opacity=".906" fill-rule="evenodd"/><path class="kz-map__region" id="reg-mang" d="M211.145 539.674l-14.025 2.768-11.81 86.734h-9.412l-7.566-14.394.184-4.06-11.441-10.519-18.823-.369-8.305 4.614-6.09 4.613-4.244-5.72-13.656-33.034-11.442-38.938 27.866-15.686 18.454-7.197 15.133.738 7.75-.369 3.138-2.03 2.583 1.661h4.614l1.291-1.845 5.721-.185 2.215 2.768 2.768.923 4.429-3.875 8.304 7.381 5.536 4.06 2.4 1.108 1.845-.185 2.583 21.038z" fill="#9ef19e" fill-opacity=".906" fill-rule="evenodd"/><path class="kz-map__region" id="reg-pav" d="M473.724 349.235l2.586.796 6.365-3.382 7.161 2.586 1.393-5.968 9.15-4.575 3.382-5.967 3.78-.398 4.177-3.58 1.591-2.189 2.984-.199 4.774-3.58.398 2.784-1.393 3.183-4.973.995 2.984 5.37 7.957 3.98 11.338 7.757 8.753 9.946 16.312 22.08-.995 5.769-6.763 7.559-3.382 2.586v3.978l4.973 5.371 3.78 4.376 1.193 5.968-4.177 7.36h-7.957l-2.586-1.989-2.188-3.382.199-4.575-5.77-.597-2.585-1.79-3.978.199-2.984 8.156-7.161 4.575-3.979-.995-3.58 2.188-3.581.398-3.183 5.371-3.58-1.193 1.989-3.382-.995-4.575-3.381-2.387h-2.785l-1.99-2.785h-8.752l-1.591-4.376.199-1.194 2.387-1.392-4.774-5.172-1.592-2.984-1.591-.398 3.978-6.365.796-.796-2.387-3.78-.2-2.586 1.791-3.182.2-7.758-5.57-11.538h2.187l.597-2.586-2.387-1.591-2.188.398-1.392-1.592-.2-1.392 2.786-2.785-.995-1.591-3.58.994-.995-4.177z" fill="#c5bf7c" fill-opacity=".906" fill-rule="evenodd"/><path class="kz-map__region" id="reg-sko" d="M373.553 326.518l12.591-3.632 10.049-4.237 5.085.121.726-3.51 4.843-4.36 5.811-3.39 15.981 6.417 3.27-3.632 4.479-1.09 2.421 5.086.726 6.416 3.148 3.753-.968 5.448-.121 1.574-2.18 1.695.121.969 3.632 4.48 3.633-3.027 1.573 2.542 2.664-2.421 1.453-1.453 4.358-2.664 3.269 4.359-.121 5.327 2.906-.606 1.573-2.179.606-3.026 3.027.12 2.42 2.785 4.723 1.21 2.663-2.784 2.421 2.058-.726 2.059-1.09.242h-1.452l-3.27 3.753-.605 2.18-.847 1.815 1.453 1.21.605 4.238 1.21-1.332h2.543l.484 1.695-2.42 2.906.726 1.695 1.694.969 2.543.12 1.21 1.09-.242 1.816-2.058.606 1.937 4.358-7.022-.968-4.48-1.332h-1.936l-2.543-4.6-11.38 2.42-7.264-8.595-5.206.605-2.664-1.453-5.206-.12-2.3 3.026-3.753-4.238-3.027-1.331-.242-3.39-4.721-.969-3.027 2.543-3.995-.848-4.359 1.21-3.753 3.875-.363.969 3.874 8.111-.242 4.48-13.68 10.775-5.328-2.785-2.058 3.753-3.269.848-3.51-1.21-9.928-.122.847-15.739 1.09-1.937 2.421-.726.605-.727-2.058-2.058 1.453-1.937 1.332-1.21-2.18-1.696-.242-1.816 2.18-2.058.968-1.09-5.085-4.963 4.722-3.27v-1.936l-3.269-.969-.242-1.574 2.542-1.937-1.21-1.452-.969-5.328z" fill="#c5bf7c" fill-opacity=".906" fill-rule="evenodd"/><path class="kz-map__region" id="reg-vko" d="M562.738 379.095l17.326 23.862 4.256-3.648 2.28-2.888-1.064-3.191.456-1.976 2.583-1.672h4.256l2.888 5.168 3.951 1.063 2.128 4.104h5.167l3.648-3.496 5.32.456 4.103-4.711h4.256l2.735-3.648 5.624.608 6.08 2.28 4.103 5.471 3.8 6.08 9.422 1.368 4.56 6.383 3.04 2.736 15.35.608 5.776-7.144h1.52l.455 3.192 4.104 2.28 2.128 2.584 4.711.607v1.672l-4.103.304-4.56 3.344v1.824l2.432 3.495.608 5.472-4.712 2.736-9.575 5.623-.608 10.183 3.952 9.727 2.736 6.84-1.216 2.887-.304 2.584-5.624 1.216-3.8 5.775h-1.975l-2.432-3.496-3.343.76s-7.144 2.736-7.752 2.736c-.608 0-6.687-1.064-6.687-1.064l-5.927-1.976h-1.976l-.76.912-3.344 38.756-3.191-.456-1.368-4.103-8.207-6.232-4.408-11.399-3.192-.151-2.28 1.823h-13.982l-4.712-4.711h-3.04l-2.431 2.584-2.128.455-1.824 1.824-4.103-.456-4.864-4.711-1.672 1.976h-4.255l-5.927-3.04-5.928 1.368-5.015 2.888-3.04-1.368-1.672 1.823-3.04.304-2.583 2.888-3.8-3.8-.152-3.191 3.04-1.368v-11.399l3.343-3.951-4.255-3.648-3.496-4.56v-2.127l3.04-1.216 1.368-1.672 1.216-3.344-3.192-3.343-1.672-4.864v-2.128l2.736-3.8-3.192-4.103-1.368-3.496v-5.775l3.192-3.344 4.712-4.255 1.975 1.672 8.207-.912 1.976-4.256 1.824-2.736-.456-3.04-1.064-1.215v-2.736l-8.359-8.815v-4.256l3.496-2.735 6.383-7.144 1.368-6.535z" fill="#7ea9d4" fill-opacity=".906" fill-rule="evenodd"/><path class="kz-map__region" id="reg-zko" d="M71.6 442.088v-4.03l-7.927-6.045 7.523-10.076 4.433-1.477 2.015-3.627-.134-2.418-2.15-1.075-.94-1.343 4.165-9.941.403-1.478 4.164.134 3.09-2.418.537-3.493.135-1.612 1.343-.94 2.15-.806 1.611-1.075 2.553 1.881 2.687 5.91.806 6.449 3.09 3.224 3.358-.537 2.418-1.075 2.82.403.538-3.896-2.015-3.627.538-9.135 4.164 1.21 4.03-2.419 4.299-1.074.537-6.314 2.687.268 4.164 1.344 3.627-2.418 3.628.134 4.03-3.761 4.433-3.09.94-1.478 6.314.403 2.552 6.448h5.24l3.895-3.358 4.836-.403 2.284 6.717 11.016 1.746 2.552 1.075 1.478 2.15.134.94v3.358l5.374 3.358 1.343 1.747.134 3.493 3.493 2.015-1.746 4.433.403 2.82 2.955.538-1.478 3.359 1.747 9-6.18 7.523-9.94.269-2.419 6.85-4.567 2.419-5.374.134-1.88-1.209-3.493 4.165-1.075 3.358-5.642 5.373c-4.4-2.953-7.166-6.232-9.807-9.537l-8.328-1.344-5.777 5.508-10.21-1.209-8.866 5.776-4.298-1.209-2.822 2.15-14.24-8.598-21.359-.537z" fill="#9ef19e" fill-opacity=".906" fill-rule="evenodd"/><path class="kz-map__region" id="reg-zhamb" d="M533.102 597.885l-.28-5.735-6.714-13.287-2.797-11.61-12.728-6.014-.84-5.315-6.433-6.154-2.098-4.056-1.679-18.742-8.811.699-41.96 3.217-14.827.42-9.65.14-4.756 2.097.979 3.217 10.35 25.316.56 16.085-1.958 1.679-2.658 11.609 4.056 5.315 3.917-.28 4.755 7.413-.14 4.056 4.756 5.735 8.811 5.874v-6.574l3.217-2.797.28-4.476 6.574-.56 3.636-.838 9.092.839 4.616.56h3.776l3.776 3.216h4.196l3.637 2.378 2.658-.28-2.658-4.196 1.958-8.811 1.12-2.518 4.335-1.958 4.616-3.217 2.937.28 10.77 6.294 3.776 1.119 7.833-.14z" fill="#f3b63f" fill-opacity=".906" fill-rule="evenodd"/><path class="kz-map__region" id="reg-yuko" d="M367.86 619.31l-.371 7.05 8.162.37 4.453 20.407 15.211-.742 4.453-.928 6.122 5.75-1.67 3.526 4.823 5.194h3.71l.557-7.606 2.968-2.597 5.565-7.42 1.856-2.227 1.855-.927 4.452-4.267 7.606-2.226 7.235-9.09 3.895 2.226.557-3.71 3.71-.928v-1.67l-6.493-4.637-6.493-6.679-.185-4.637-4.638-7.235-3.339.185-4.823-4.823 2.968-11.873 2.412-2.968-.371-13.913-10.946-26.528v-3.71l-30.794.742-.928 10.76-1.298 2.782 5.565 7.977.185 16.325 7.606 7.05-1.298 4.452.742 4.823-5.38 5.565 2.783 4.823-3.71 3.525-4.824 3.71-5.38 2.226-8.348 5.937-8.162 5.936z" fill="#f3b63f" fill-opacity=".906" fill-rule="evenodd"/><path class="kz-map__region" id="reg-actau" d="M197.518 409.541l1.274-2.896v-2.432l-2.317-3.707 2.317-3.127 7.645 6.834 5.907 7.645 3.939-1.39 4.286-1.738 1.274-3.706h3.822l2.549-3.128 8.34.81 3.011 4.634h4.402l3.127-3.938 6.024.463 3.938 1.159.464 5.675 5.791 6.024 5.097-.232 6.718 4.518 2.896-4.055.695-2.664.348-.926h2.2l1.275 3.243 5.791.579 6.024-.463 2.78-.348 3.475-1.969 1.737-4.286 1.506-6.718 5.792.463-.695 3.823 1.505 2.316 2.085-2.548 1.738 1.158.463 2.665 1.854 2.2-1.622 1.39v3.707l3.475 4.054 1.274 3.707.695 3.475 1.622 2.664.231 4.633-4.98 3.244-3.012 5.096-2.433 1.854 1.854 2.664-.348 4.054-1.042 2.664 5.096 5.676 2.085 1.39 1.275-2.317h1.853l.927 1.043-1.159 3.012 2.664 2.664 2.78 1.274 2.433 1.737 3.59.695 4.518 7.298.116 4.17 2.317 3.59.116 1.738-.927 1.622-8.688 6.14-5.444 3.59-3.706 1.506-4.518 3.938-3.012-3.243-1.505-.927-1.043-3.127-10.31-11.12-8.687-.348-8.224 14.48-9.498.115-.927 6.023-3.359-1.158-.232.927-15.637 14.942-1.506 2.664h-5.907l-.348 9.499-4.286.81-31.507 6.024-3.706-33.708-10.425-4.98-4.75-4.518.116-6.255-2.316-3.475 1.042-4.75 5.097-9.613-2.2-4.054-.464-11.7 2.432-4.749-5.444-2.896-2.432 1.854-5.445-2.433-.347-6.023 2.085-1.622v-.926l-5.56-4.402 2.085-6.834 9.846-.464 6.139-7.181-1.738-9.383 1.854-3.359z" fill="#9ef19e" fill-opacity=".906" fill-rule="evenodd"/></g><g class="kz-map__borders" id="gBorders" transform="translate(6.122 290.523)" stroke="#000" stroke-width=".5" stroke-dasharray="1,.5,.25,.5"><g class="kz-map__info-wrapper kz-map__info-wrapper--kyz kz-map__info-wrapper--kyzylorda"><circle class="kz-map__circle" cx="330" cy="260" r="5"/><g class="kz-map__city"><path class="kz-map__line" d="M330 260l65 35m0 0v35"/><text class="kz-map__text" x="335" y="355">Кызылорда</text></g></g><g class="kz-map__info-wrapper kz-map__info-wrapper--kar kz-map__info-wrapper--karaganda"><circle class="kz-map__circle" cx="485" cy="175" r="5"/><g class="kz-map__city"><path class="kz-map__line" d="M485 175l65 35m0 0v35"/><text class="kz-map__text" x="500" y="270">Караганда</text></g></g><g class="kz-map__info-wrapper kz-map__info-wrapper--kar kz-map__info-wrapper--temirtau"><circle class="kz-map__circle" cx="460" cy="160" r="5"/><g class="kz-map__city"><path class="kz-map__line" d="M460 160l65 35m0 0v35"/><text class="kz-map__text" x="470" y="255">Темиртау</text></g></g><g class="kz-map__info-wrapper kz-map__info-wrapper--yuko kz-map__info-wrapper--shymkent"><circle class="kz-map__circle" cx="420" cy="320" r="5"/><g class="kz-map__city"><path class="kz-map__line" d="M420 320l65 45"/><text class="kz-map__text" x="440" y="390">Шымкент</text></g></g><g class="kz-map__info-wrapper kz-map__info-wrapper--yuko kz-map__info-wrapper--taraz"><circle class="kz-map__circle" cx="445" cy="305" r="5"/><g class="kz-map__city"><path class="kz-map__line" d="M445 305l70 45"/><text class="kz-map__text" x="485" y="375">Тараз</text></g></g><g class="kz-map__info-wrapper kz-map__info-wrapper--yuko kz-map__info-wrapper--turkestan"><circle class="kz-map__circle" cx="395" cy="300" r="5"/><g class="kz-map__city"><path class="kz-map__line" d="M395 300l65 35"/><text class="kz-map__text" x="410" y="360">Туркестан</text></g></g><g class="kz-map__info-wrapper kz-map__info-wrapper--akm kz-map__info-wrapper--astana"><circle class="kz-map__circle" cx="440" cy="120" r="5"/><g class="kz-map__city"><path class="kz-map__line" d="M440 120l65 40m0 0v35"/><text class="kz-map__text" x="465" y="220">Астана</text></g></g><g class="kz-map__info-wrapper kz-map__info-wrapper--akm kz-map__info-wrapper--kokshetaw"><circle class="kz-map__circle" cx="410" cy="70" r="5"/><g class="kz-map__city"><path class="kz-map__line" d="M410 70l65 35m0 0v35"/><text class="kz-map__text" x="430" y="165">Кокшетау</text></g></g><g class="kz-map__info-wrapper kz-map__info-wrapper--alm kz-map__info-wrapper--almaty"><circle class="kz-map__circle" cx="530" cy="280" r="5"/><g class="kz-map__city"><path class="kz-map__line" d="M530 280l65 35m0 0v35"/><text class="kz-map__text" x="560" y="375">Алматы</text></g></g><g class="kz-map__info-wrapper kz-map__info-wrapper--alm kz-map__info-wrapper--taldykorgan"><circle class="kz-map__circle" cx="555" cy="250" r="5"/><g class="kz-map__city"><path class="kz-map__line" d="M555 250l50 35m0 0v25"/><text class="kz-map__text" x="540" y="340">Талдыкорган</text></g></g><g class="kz-map__info-wrapper kz-map__info-wrapper--pav kz-map__info-wrapper--pavlodar"><circle class="kz-map__circle" cx="525" cy="90" r="5"/><g class="kz-map__city"><path class="kz-map__line" d="M525 90l65 35m0 0v35"/><text class="kz-map__text" x="540" y="185">Павлодар</text></g></g><g class="kz-map__info-wrapper kz-map__info-wrapper--pav kz-map__info-wrapper--ekibastuz"><circle class="kz-map__circle" cx="490" cy="95" r="5"/><g class="kz-map__city"><path class="kz-map__line" d="M490 95l65 35m0 0v35"/><text class="kz-map__text" x="500" y="190">Экибастуз</text></g></g><g class="kz-map__info-wrapper kz-map__info-wrapper--vko kz-map__info-wrapper--ust-kamenogorsk"><circle class="kz-map__circle" cx="610" cy="120" r="5"/><g class="kz-map__city"><path class="kz-map__line" d="M610 120l-65 35m0 0v25"/><text class="kz-map__text" x="460" y="205">Усть-Каменогорск</text></g></g><g class="kz-map__info-wrapper kz-map__info-wrapper--vko kz-map__info-wrapper--semey"><circle class="kz-map__circle" cx="575" cy="120" r="5"/><g class="kz-map__city"><path class="kz-map__line" d="M575 120l65 35m0 0v25"/><text class="kz-map__text" x="600" y="205">Семей</text></g></g><g class="kz-map__info-wrapper kz-map__info-wrapper--kost kz-map__info-wrapper--kostanay"><circle class="kz-map__circle" cx="330" cy="70" r="5"/><g class="kz-map__city"><path class="kz-map__line" d="M330 70l65 35m0 0v30"/><text class="kz-map__text" x="340" y="165">Костанай</text></g></g><g class="kz-map__info-wrapper kz-map__info-wrapper--kost kz-map__info-wrapper--rudniy"><circle class="kz-map__circle" cx="315" cy="80" r="5"/><g class="kz-map__city"><path class="kz-map__line" d="M315 80l65 35m0 0v35"/><text class="kz-map__text" x="345" y="175">Рудный</text></g></g><g class="kz-map__info-wrapper kz-map__info-wrapper--zko kz-map__info-wrapper--uralsk"><circle class="kz-map__circle" cx="140" cy="95" r="5"/><g class="kz-map__city"><path class="kz-map__line" d="M140 95l65 35m0 0v30"/><text class="kz-map__text" x="160" y="180">Уральск</text></g></g><g class="kz-map__info-wrapper kz-map__info-wrapper--atyr kz-map__info-wrapper--atyrau"><circle class="kz-map__circle" cx="135" cy="180" r="5"/><g class="kz-map__city"><path class="kz-map__line" d="M135 180l65 25m0 0v35"/><text class="kz-map__text" x="160" y="265">Атырау</text></g></g><g class="kz-map__info-wrapper kz-map__info-wrapper--sko kz-map__info-wrapper--petropavlovsk"><circle class="kz-map__circle" cx="405" cy="30" r="5"/><g class="kz-map__city"><path class="kz-map__line" d="M405 30l65 35m0 0v35"/><text class="kz-map__text" x="400" y="125">Петропавловск</text></g></g><g class="kz-map__info-wrapper kz-map__info-wrapper--mang kz-map__info-wrapper--actau"><circle class="kz-map__circle" cx="110" cy="260" r="5"/><g class="kz-map__city"><path class="kz-map__line" d="M110 260l65 35m0 0v35"/><text class="kz-map__text" x="150" y="350">Актау</text></g></g><g class="kz-map__info-wrapper kz-map__info-wrapper--aktobe kz-map__info-wrapper--actobe"><circle class="kz-map__circle" cx="225" cy="135" r="5"/><g class="kz-map__city"><path class="kz-map__line" d="M225 135l65 35m0 0v35"/><text class="kz-map__text" x="260" y="230">Актобе</text></g></g><path id="path17321" d="M201.368 248.324l-1.116-11.48-1.116-9.725-2.232.478-3.826-2.55-3.19-1.914-5.26-4.943-2.552-2.391-1.594-1.435-1.275 2.391-2.551 2.392-1.754-.638-1.754-1.594-1.754-1.913-6.058.478-.798 1.754h-4.304l-3.03-1.595-2.87 1.914-8.928.478" fill="none" fill-opacity=".75" fill-rule="evenodd"/><path id="path17323" d="M199.136 227.119l-1.594-12.436-4.146-2.073-6.696-3.03-4.305-4.304v-6.218l-2.232-3.508.957-4.464 1.913-4.145 1.594-3.189 1.595-3.03-2.232-3.507-.32-12.276 2.074-4.305-5.262-2.71-2.391 1.594-5.74-2.392v-5.899l1.913-1.754v-1.275l-5.9-3.986-4.144 2.391-5.262.32-1.913-1.436-3.667 4.465-.797 2.71-6.378 5.58-3.986-3.188-6.058-6.856-7.494-.638-5.899 5.102-10.044-.638-9.088 5.74-3.986-1.116-3.189 1.913-13.87-8.61-21.844-.797" fill="none" fill-opacity=".75" fill-rule="evenodd"/><path id="path17329" d="M233.096 242.265l2.392-1.753-.479-2.233 2.551-3.507v-2.392l5.74-.16 1.594-3.028 16.263-15.306 2.551.797 1.275-5.9 9.407.16 8.131-14.828 8.77.32 10.682 11.32.478 2.87 3.348 2.39 2.232 3.03 3.508.478 4.942 4.943 26.148 12.277 8.769 7.015 16.103.319 1.435-1.276 6.696-.16 4.624 4.305-1.275 11.48-1.276 2.71 5.261 7.175.479 16.74 7.972 6.857-1.276 4.464.16 5.261-5.102 5.58 3.029 5.262-5.262 3.507-3.985 3.19-4.943 1.753-4.783 3.189-5.74 4.623-2.232 2.073-3.826 2.551" fill="none" fill-opacity=".75" fill-rule="evenodd"/><path id="path17331" d="M380.097 242.106l30.452-.478.797 4.464 7.813 18.016 2.71 7.813.16 14.668-1.754 2.072-2.551 9.885-.16 2.233 4.146 4.783 3.667-.32 4.623 7.335-.16 4.623 6.538 6.856 7.653 4.624" fill="none" fill-opacity=".75" fill-rule="evenodd"/><path id="path17333" d="M410.708 242.106l4.624-1.754 16.9-.16 54.847-3.985 5.101 19.93 2.392 3.666 6.059 5.262.956 4.942 12.755 6.218 2.392 11.48 5.261 9.885 1.754 3.03-.16 6.695" fill="none" fill-opacity=".75" fill-rule="evenodd"/><path id="path17335" d="M487.079 236.366l11.32-12.914 7.015-5.421 5.899-.957 6.058-1.116 12.118-.16 9.566-.159 5.58-.956-.319-3.667-.16-6.059-.956-.956 1.116-3.349 2.232-.478 4.465-2.55 4.145-1.436h2.073l3.507 1.595 3.189 1.753 3.03-.319 2.231-1.594 4.624 4.464h4.305l1.594-1.435 2.232-.478 2.392-2.87 3.348.479 4.305 4.464 13.87-.32 2.87-1.593 2.552.318 3.348 8.929.956 2.391 8.132 6.059 1.594 4.464 4.145.32" fill="none" fill-opacity=".75" fill-rule="evenodd"/><path id="path17337" d="M544.954 200.174L543.2 198.9l-2.073 2.072-2.232.479-2.391 2.232h-.957l-3.507-3.03v-3.667l2.55-1.116.16-11.32 1.913-2.232 1.595-1.754-3.986-3.348-3.508-4.464-.319-2.87 2.392-.797 1.913-1.594 1.594-3.508-3.507-3.667-1.276-2.87-.319-3.986 2.87-3.826-3.667-3.986-1.116-4.464.16-5.262 7.493-7.015 2.232 1.435 8.131-.797 2.87-5.74.957-.957-.319-3.348-1.116-1.275v-2.71l-8.29-8.45v-4.306l5.58-5.102 4.304-5.102 1.435-6.536" fill="none" fill-opacity=".75" fill-rule="evenodd"/><path id="path17339" d="M537.142 128.747l-2.551-3.827.637-3.986-2.232-1.435-5.102-.319-1.435-1.275h-3.826l-3.667 8.45-6.697 3.667-4.145-.478-3.507 1.913-3.508.797-3.827 4.783-3.029-.797 1.913-3.348-.637-4.464-3.827-2.392h-2.71l-2.073-2.391-8.769-.479-1.754-3.348v-1.913l2.551-1.913-2.391-2.71-2.71-2.87-.638-2.233-2.551-.319 3.667-6.218 1.913-1.116-2.87-3.507-.319-2.392 1.913-3.348.16-8.29-2.551-6.06-1.435-3.347-1.435-2.233 2.55-.478.16-2.232-1.753-.957-2.233.16-2.072-1.595-.479-.956 1.276-1.595 1.913-1.594-1.275-1.594-2.71.319-.638.956L463.8 57" fill="none" fill-opacity=".75" fill-rule="evenodd"/><path id="path17341" d="M472.25 75.495c-7.493-.638-7.174-.638-7.174-.638l-4.478-1.306-2.218-.129-2.214-4.713-5.59 1.113-6.287 1.479-3.23-4.69-3.477-3.622s-5.427.944-5.72.203c-.739-1.87-7.342-1.459-7.342-1.459l-2.71 3.216-3.549-4.384-3.087-1.289-.423-3.42-4.462-.884-3.07 2.6-3.615-1.278-4.899 1.303-3.97 4.54 4.005 8.251.01 4.469-14.19 11.32-5.101-3.348-2.232 3.986-2.232.797-5.58-.957-8.61-.319.319-15.146 1.275-2.551 2.551-.638.638-.797-1.913-1.913.637-1.754 1.914-1.435-2.392-1.754v-2.072l1.754-1.116 1.116-1.754-1.435-1.595-2.551-2.072-.957-1.116 4.943-3.667v-1.754l-3.667-1.116V42.65l2.55-1.913-1.115-1.435-1.116-5.58" fill="none" fill-opacity=".75" fill-rule="evenodd"/><path id="path17343" d="M307.234 213.088l4.943-4.145 3.667-1.594 4.464-3.189 2.55-1.594 8.132-6.059-.319-2.55-2.71-3.35v-3.985l-4.145-6.696-5.102-1.914-3.508-2.232-3.508-2.71 1.276-3.189-1.754-1.435-1.275.16-.957 2.072-1.913-.956-5.262-5.74 1.595-3.986v-2.87l-1.914-2.391 2.073-1.595 3.189-4.942 3.986-2.232 1.435-1.276-.638-5.899-1.594-1.275.159-2.073-1.275-4.305-2.073-2.55-2.232-2.552v-3.348l1.913-1.754-2.073-2.391-.637-2.392-1.595-1.435-2.391 2.551-1.116-2.073.637-3.985-6.855-.16" fill="none" fill-opacity=".75" fill-rule="evenodd"/><path id="path17345" d="M327.96 186.94l2.87-.477.48-2.073.637-2.71 2.71-1.435 1.276-3.03 2.072-1.275.32-3.189 1.275-2.551h2.55l1.436 1.913 9.406 1.435 3.349-3.189 3.188.32 2.392-4.465 3.986-3.348.478-4.943 5.42-4.623 5.74-4.943 4.465-8.61 5.58-4.145 2.551-1.594v-4.145l-10.682.637-6.218-3.986-1.435-3.348h-7.334l-3.827-5.58h-7.812v-11.798l-3.189-3.348 7.334-8.45 3.986-8.132" fill="none" fill-opacity=".75" fill-rule="evenodd"/><path id="path17347" d="M389.663 129.863l3.03-1.116 2.39-2.71.638-1.595h4.305l4.783 6.696 7.175.957 1.275 5.261h2.71l.16-1.275 3.348.797 2.551 2.072h4.624l3.189-2.391v-4.305l5.102-4.464 6.696-4.943 3.03.798.637 6.377 4.464.478 3.19-4.304 4.463-2.71 1.435-4.306 4.783-.478 1.754-3.348 3.508-1.913 3.188-.479 2.551-1.913" fill="none" fill-opacity=".75" fill-rule="evenodd"/><path id="path17349" d="M168.63 144.295l2.453-7.212 9.953-.144 6.059-7.502-.721-5.625-1.299-3.607 2.453-3.606" fill="none" fill-opacity=".75" fill-rule="evenodd"/></g><g id="gLakes" transform="translate(6.122 290.523)" fill="#c1eaea" stroke="#575ded"><path id="path1308" d="M32.841 383.224h93.245L123.671 380l-.663-2.654-1.858-1.99-1.858-.266h-2.256l-1.061-1.725.796-1.857.53-1.195 2.257-1.99.398 2.256 2.654.132.398-.132.929.796 1.592-.133.53-.929-.53-.796-1.592-1.592-1.327-1.327.663-2.256 1.858-1.062v-1.46l-3.052-.397-2.521-1.46-2.787-.133-1.725-.928h-1.327l1.46 3.98-2.389-3.98-.796-3.185.796-.796-.265-3.981.53-3.317 1.593-2.256 1.061-1.327.664-3.185 1.327-.796 1.061-2.521.133-5.043h.929l1.46 4.645.928 3.317 3.583 1.858 1.99 1.327 1.858-1.46 1.327-1.46h1.195l-.399 4.512 1.327 1.99 5.043-.132 1.061-1.194h2.389l1.061 1.46 1.195-.266-1.195-2.123-.398-2.654 3.583-.133 1.592 2.389h2.654l1.195-.797.663-1.061v-4.246l-10.217-11.28-.531-3.582 1.194-1.46.265-1.592-1.327-1.592-.663-2.124.663-3.98-1.061-1.327h-1.725l-2.123-1.062h-3.716l-2.123.929-2.123-.796-2.123.929-2.256 1.857-1.592 2.522-1.725 2.123 1.327 1.857-.664 2.522-.796 1.592-1.061 2.123-.398 1.858-1.593-2.654-1.858-2.521-.796-1.858 1.46-.929.133-1.858-1.593-1.061-1.327-1.062 1.99-2.123.399-1.725-1.062-4.91 3.052-2.919 2.256-3.317 2.123-2.521.398-3.318-.929-2.256-1.99-1.592-.663-1.194-3.185-.265-1.592-1.327-4.777-.531-1.195-4.38-.929-3.582-7.563-.53 1.327-2.39.929-1.724-.266-5.573-1.99-3.848-.133-4.247-1.061-2.919-1.062-2.654v-4.246l-4.113-2.123-4.247-1.99.398-5.043 1.99-2.123 3.716 1.061 2.92 1.195 2.919.132 3.45 4.114h1.858l.928-.796 2.787 2.123 2.388-.398-3.582-3.45-5.175-6.635.398-2.521 1.99-.796 2.92-.266 2.255-4.644 1.593-1.858.928.796h3.052l2.256-1.46 2.123 1.195 21.762 8.89 3.716-.398 1.194 1.99 2.786-.795 5.706.132.398 3.052-1.99 1.062-3.185.663.133 1.327.929 1.195 1.725.398 3.583-.796 1.46.928 1.592-1.327-1.327-3.184-1.062-1.858v-3.583l1.327-.796-.53-1.592-2.39-1.593-2.786 2.92-4.113.929-2.92-.133-1.857-2.654h-2.389l-1.327-3.98-.796-2.522 1.46-1.858-.133-1.327 3.98-5.042 1.328-3.98.796-.797-.265-8.625-1.062-.398.265-6.768-3.317-2.654-2.92-1.061-2.255-1.194-1.858 1.46-2.256 1.326-1.46 1.062-1.592-1.194-4.113-2.522-2.654-2.654-2.92-2.653-2.122-.531-1.99-.796-5.707 1.327-2.786 1.061-2.787 1.062-10.35 3.582-2.123 1.46-6.104-.663-3.715.398-3.849 4.379-3.052 2.653-3.715-.132-1.725 2.123-5.839 1.327-3.184 1.725-5.706.133-4.91 1.46-3.715 3.715-2.389 4.246-2.255 1.46-3.185 3.98-3.318 2.123-4.378 1.593-1.99 3.715.397 2.92 3.848 1.857.531 3.318 1.725 1.194.531 3.45 1.194 1.858.531 3.848.663 2.256v1.46l-1.725.265-.663 1.592-.53 2.521-.266 5.175-1.725 1.725.132 2.787-1.326 1.061.265 1.593 3.052 3.715-.266 2.256.266 3.052 1.858 1.327.132 4.511 2.256 1.858 1.194 5.308 1.327 5.706 3.185 3.184 3.848 9.422 2.256 5.44.133 7.962 4.777 6.104-1.327 1.327v1.99l3.98 2.92 4.91.265 4.644 5.573-.663 3.185-3.45-2.787-2.787-.265-1.857-1.195-2.92 1.858-3.98.53-2.654 2.788-.133 2.919-1.194 1.194-.93 2.389v2.388l-2.786 1.327-1.327 1.858.796 2.654.93 2.255-2.256.133-1.593 2.92-1.327 2.52-1.857 1.46.132-4.91-1.99-1.061-.398 2.123-1.327 2.521-.266 1.593-1.99 1.725-1.327 5.97-.996 7.073z" fill="#feb23a!important" fill-rule="evenodd" stroke="#feb23a!important"/></g></g></svg>