<?xml version="1.0" encoding="iso-8859-1"?>
<!-- Generator: Adobe Illustrator 16.0.0, SVG Export Plug-In . SVG Version: 6.00 Build 0)  -->
<!DOCTYPE svg PUBLIC "-//W3C//DTD SVG 1.1//EN" "http://www.w3.org/Graphics/SVG/1.1/DTD/svg11.dtd">
<svg version="1.1" id="Capa_1" xmlns="http://www.w3.org/2000/svg" xmlns:xlink="http://www.w3.org/1999/xlink" x="0px" y="0px"
	 width="478.125px" height="478.125px" viewBox="0 0 478.125 478.125" style="enable-background:new 0 0 478.125 478.125;"
	 xml:space="preserve">
<g>
	<path d="M239.062,0C107.1,0,0,107.1,0,239.062c0,13.388,1.913,24.862,3.825,38.25c0,3.825,1.912,5.737,1.912,9.562
		c22.95,109.013,118.575,191.25,235.237,191.25c130.051,0,237.15-107.1,237.15-239.062C478.125,107.1,371.025,0,239.062,0z
		 M248.625,47.812c0-9.562,0-19.125-1.912-28.688c95.625,3.825,175.949,68.85,202.725,156.825
		c-45.9,7.65-86.062,26.775-118.575,55.462c-26.774-36.337-61.2-68.85-99.45-93.712C242.888,109.013,248.625,78.413,248.625,47.812z
		 M227.587,19.125c1.913,9.562,1.913,19.125,1.913,28.688c0,26.775-5.737,53.55-15.3,78.413c-38.25-22.95-82.238-38.25-128.138-45.9
		C122.4,45.9,172.125,22.95,227.587,19.125z M19.125,239.062c0-53.55,19.125-103.275,51.638-141.525
		c49.725,5.737,95.625,21.038,137.7,45.9C174.038,214.2,103.275,262.013,22.95,267.75C19.125,258.188,19.125,248.625,19.125,239.062
		z M239.062,459c-105.188,0-193.163-74.588-214.2-172.125c87.975-5.737,162.562-57.375,198.9-131.962
		c36.337,24.862,66.938,53.55,93.712,89.887c-42.074,42.075-68.85,101.362-68.85,166.388c0,15.3,1.912,32.513,3.825,47.812
		C248.625,459,244.8,459,239.062,459z M271.575,457.088c-3.825-15.301-3.825-30.601-3.825-45.9
		c0-59.287,22.95-110.925,59.287-151.088c26.775,43.988,45.9,93.713,51.638,147.263C349.987,432.225,313.65,449.438,271.575,457.088
		z M397.8,392.062c-7.649-53.55-26.774-101.362-55.462-145.35c30.6-26.775,68.85-45.9,112.837-53.55
		c3.825,15.3,3.825,30.6,3.825,45.9C459,298.35,436.05,351.9,397.8,392.062z"/>
</g>
<g>
</g>
<g>
</g>
<g>
</g>
<g>
</g>
<g>
</g>
<g>
</g>
<g>
</g>
<g>
</g>
<g>
</g>
<g>
</g>
<g>
</g>
<g>
</g>
<g>
</g>
<g>
</g>
<g>
</g>
</svg>
