<svg width="24" height="24" viewBox="0 0 24 24" fill="none" xmlns="http://www.w3.org/2000/svg">
<path d="M13.2162 7.98777C13.8881 8.65964 13.8881 9.74895 13.2162 10.4208C12.5444 11.0927 11.4551 11.0927 10.7832 10.4208C10.1113 9.74895 10.1113 8.65963 10.7832 7.98777C11.4551 7.3159 12.5444 7.3159 13.2162 7.98777" stroke="#3D3A39" stroke-linecap="round" stroke-linejoin="round"/>
<path d="M8.12891 16.5161L8.12891 16.5161C8.12891 14.3782 9.86199 12.6451 11.9999 12.6451C14.1377 12.6451 15.8708 14.3782 15.8708 16.5161V16.5161" stroke="#3D3A39" stroke-linecap="round" stroke-linejoin="round"/>
<path d="M19.0125 5.02216C22.8757 8.8854 22.8757 15.149 19.0125 19.0122C15.1492 22.8754 8.88565 22.8754 5.02243 19.0122C1.15919 15.1489 1.15919 8.88538 5.02243 5.02216C8.88567 1.15892 15.1492 1.15892 19.0125 5.02216" stroke="#3D3A39" stroke-linecap="round" stroke-linejoin="round"/>
</svg>
