<?xml version="1.0" encoding="iso-8859-1"?>
<!-- Generator: Adobe Illustrator 19.0.0, SVG Export Plug-In . SVG Version: 6.00 Build 0)  -->
<svg version="1.1" id="Layer_1" xmlns="http://www.w3.org/2000/svg" xmlns:xlink="http://www.w3.org/1999/xlink" x="0px" y="0px"
	 viewBox="0 0 512 512" style="enable-background:new 0 0 512 512;" xml:space="preserve">
<g>
	<g>
		<g>
			<path d="M240.915,420.418c9.519,9.519,25.368,7.95,32.835-3.251l85.333-128c6.536-9.803,3.886-23.048-5.917-29.584
				c-9.803-6.536-23.049-3.886-29.584,5.917l-70.899,106.348l-45.599-45.599c-8.331-8.331-21.839-8.331-30.17,0
				c-8.331,8.331-8.331,21.839,0,30.17L240.915,420.418z"/>
			<path d="M490.667,42.667H380.346C371.562,17.808,347.872,0,320,0s-51.562,17.808-60.346,42.667h-49.974
				C200.895,17.808,177.206,0,149.333,0S97.772,17.808,88.987,42.667H21.333C9.551,42.667,0,52.218,0,64v106.667v320
				C0,502.449,9.551,512,21.333,512h469.333c11.782,0,21.333-9.551,21.333-21.333v-320V64C512,52.218,502.449,42.667,490.667,42.667
				z M42.667,85.333h64C118.449,85.333,128,75.782,128,64c0-11.791,9.542-21.333,21.333-21.333S170.667,52.209,170.667,64
				s-9.542,21.333-21.333,21.333c-11.782,0-21.333,9.551-21.333,21.333c0,11.782,9.551,21.333,21.333,21.333
				c27.872,0,51.562-17.808,60.346-42.667h67.654c11.782,0,21.333-9.551,21.333-21.333c0-11.791,9.542-21.333,21.333-21.333
				S341.333,52.209,341.333,64S331.791,85.333,320,85.333c-11.782,0-21.333,9.551-21.333,21.333
				c0,11.782,9.551,21.333,21.333,21.333c27.872,0,51.562-17.808,60.346-42.667h88.987v64H42.667V85.333z M469.333,469.333H42.667
				V192h426.667V469.333z"/>
		</g>
	</g>
</g>
<g>
</g>
<g>
</g>
<g>
</g>
<g>
</g>
<g>
</g>
<g>
</g>
<g>
</g>
<g>
</g>
<g>
</g>
<g>
</g>
<g>
</g>
<g>
</g>
<g>
</g>
<g>
</g>
<g>
</g>
</svg>
