<svg height="511pt" viewBox="-21 1 511 511.99875" width="511pt" xmlns="http://www.w3.org/2000/svg"><path d="m422.65625 223.191406-231.539062 231.539063c-36.382813 36.378906-95.574219 36.378906-131.949219.003906l-1.429688-1.429687c-17.566406-17.566407-27.242187-41-27.242187-65.976563s9.675781-48.40625 27.242187-65.972656l272.671875-272.671875c24.933594-24.933594 65.507813-24.9375 90.441406 0l.710938.710937c24.933594 24.933594 24.933594 65.503907 0 90.4375l-271.25 271.25c-13.488281 13.488281-35.441406 13.484375-48.925781.003907l-.710938-.714844c-6.503906-6.503906-10.085937-15.195313-10.085937-24.464844 0-9.273438 3.582031-17.964844 10.085937-24.46875l230.453125-230.453125c5.859375-5.859375 5.859375-15.355469 0-21.214844-5.855468-5.855469-15.351562-5.855469-21.210937 0l-230.457031 230.460938c-12.167969 12.167969-18.871094 28.390625-18.871094 45.675781s6.703125 33.507812 18.867187 45.671875l.714844.714844c25.1875 25.1875 66.164063 25.183593 91.351563 0l271.246093-271.246094c36.632813-36.632813 36.632813-96.234375 0-132.863281l-.710937-.710938c-36.628906-36.628906-96.230469-36.628906-132.859375 0l-272.671875 272.671875c-23.234375 23.230469-36.027344 54.195313-36.027344 87.183594 0 32.992187 12.792969 63.953125 36.023438 87.183594l1.429687 1.429687c24.039063 24.039063 55.613281 36.058594 87.1875 36.058594s63.148437-12.019531 87.183594-36.058594l231.542969-231.539062c5.855468-5.859375 5.855468-15.355469 0-21.210938-5.859376-5.859375-15.355469-5.859375-21.210938 0zm0 0"/></svg>